<mxfile host="app.diagrams.net" agent="Mozilla/5.0 (Windows NT 10.0; Win64; x64) AppleWebKit/537.36 (KHTML, like Gecko) Chrome/140.0.0.0 Safari/537.36" version="28.2.5">
  <diagram name="第 1 页" id="06e6fSPGU-WMydXZkGzF">
    <mxGraphModel dx="1766" dy="2582" grid="1" gridSize="10" guides="1" tooltips="1" connect="1" arrows="1" fold="1" page="1" pageScale="1" pageWidth="827" pageHeight="1169" math="0" shadow="0">
      <root>
        <mxCell id="0" />
        <mxCell id="1" parent="0" />
        <mxCell id="va3hNXhypl2KoHStTbOh-30" value="&lt;font style=&quot;color: rgb(255, 0, 0);&quot;&gt;&lt;b&gt;背板带宽/交换容量&lt;/b&gt;&lt;/font&gt;：&lt;span style=&quot;background-color: transparent; color: light-dark(rgb(0, 0, 0), rgb(255, 255, 255));&quot;&gt;是指&lt;b&gt;交换机接口处理器或接口卡&lt;/b&gt;和数据总线间所能吞吐的最大数据量。交换容量表明了交换机总的数据交换能力，单位是Gbps&lt;/span&gt;&lt;div&gt;&lt;font style=&quot;background-color: transparent; color: rgb(255, 0, 0);&quot;&gt;&lt;b&gt;&lt;br&gt;&lt;/b&gt;&lt;/font&gt;&lt;/div&gt;&lt;div&gt;&lt;font style=&quot;background-color: transparent; color: rgb(255, 0, 0);&quot;&gt;&lt;b&gt;包转发率&lt;/b&gt;&lt;/font&gt;&lt;span style=&quot;background-color: transparent; color: light-dark(rgb(0, 0, 0), rgb(255, 255, 255));&quot;&gt;：&lt;/span&gt;&lt;span style=&quot;background-color: transparent; color: light-dark(rgb(0, 0, 0), rgb(255, 255, 255));&quot;&gt;包转发率也称为接口吞吐量，是指通信设备某接口上的数据包转发能力，单位通常为pps（packet per second）&lt;/span&gt;&lt;/div&gt;&lt;div&gt;&lt;span style=&quot;background-color: transparent;&quot;&gt;&lt;font style=&quot;color: light-dark(rgb(255, 0, 0), rgb(255, 255, 255));&quot;&gt;（&lt;/font&gt;&lt;b style=&quot;&quot;&gt;&lt;font style=&quot;color: light-dark(rgb(255, 0, 0), rgb(255, 255, 255));&quot;&gt;注意，这里说的包其实是以太网数据帧，要考虑到前导码和帧间隙&lt;/font&gt;&lt;/b&gt;&lt;font style=&quot;color: light-dark(rgb(255, 0, 0), rgb(255, 255, 255));&quot;&gt;）&lt;/font&gt;&lt;/span&gt;&lt;/div&gt;&lt;div&gt;&lt;span style=&quot;background-color: transparent;&quot;&gt;&lt;font style=&quot;color: light-dark(rgb(255, 0, 0), rgb(255, 255, 255));&quot;&gt;&lt;br&gt;&lt;/font&gt;&lt;/span&gt;&lt;/div&gt;&lt;div&gt;&lt;span style=&quot;background-color: transparent;&quot;&gt;&lt;font style=&quot;color: light-dark(rgb(255, 0, 0), rgb(255, 255, 255));&quot;&gt;&lt;br&gt;&lt;/font&gt;&lt;/span&gt;&lt;/div&gt;&lt;div&gt;&lt;span style=&quot;background-color: transparent;&quot;&gt;&lt;font style=&quot;color: light-dark(rgb(255, 0, 0), rgb(255, 255, 255));&quot;&gt;&lt;br&gt;&lt;/font&gt;&lt;/span&gt;&lt;/div&gt;&lt;div&gt;&lt;span style=&quot;background-color: transparent;&quot;&gt;&lt;font style=&quot;color: light-dark(rgb(255, 0, 0), rgb(255, 255, 255));&quot;&gt;&lt;br&gt;&lt;/font&gt;&lt;/span&gt;&lt;/div&gt;&lt;div&gt;&lt;span style=&quot;background-color: transparent; color: light-dark(rgb(0, 0, 0), rgb(255, 255, 255));&quot;&gt;&lt;br&gt;&lt;/span&gt;&lt;/div&gt;&lt;div&gt;&lt;div&gt;&lt;div&gt;&lt;br&gt;&lt;/div&gt;&lt;/div&gt;&lt;/div&gt;" style="text;html=1;align=center;verticalAlign=middle;whiteSpace=wrap;rounded=0;" vertex="1" parent="1">
          <mxGeometry x="1360" y="990" width="1010" height="30" as="geometry" />
        </mxCell>
        <mxCell id="va3hNXhypl2KoHStTbOh-32" value="路由表" style="shape=table;startSize=30;container=1;collapsible=0;childLayout=tableLayout;strokeColor=#2D7600;fontSize=16;fontColor=#ffffff;fillColor=#60a917;" vertex="1" parent="1">
          <mxGeometry x="1280" y="-400" width="810" height="203" as="geometry" />
        </mxCell>
        <mxCell id="va3hNXhypl2KoHStTbOh-33" value="" style="shape=tableRow;horizontal=0;startSize=0;swimlaneHead=0;swimlaneBody=0;strokeColor=inherit;top=0;left=0;bottom=0;right=0;collapsible=0;dropTarget=0;fillColor=none;points=[[0,0.5],[1,0.5]];portConstraint=eastwest;fontSize=16;" vertex="1" parent="va3hNXhypl2KoHStTbOh-32">
          <mxGeometry y="30" width="810" height="48" as="geometry" />
        </mxCell>
        <mxCell id="va3hNXhypl2KoHStTbOh-34" value="目的地址/掩码" style="shape=partialRectangle;html=1;whiteSpace=wrap;connectable=0;strokeColor=#001DBC;overflow=hidden;fillColor=#0050ef;top=0;left=0;bottom=0;right=0;pointerEvents=1;fontSize=16;fontColor=#ffffff;" vertex="1" parent="va3hNXhypl2KoHStTbOh-33">
          <mxGeometry width="150" height="48" as="geometry">
            <mxRectangle width="150" height="48" as="alternateBounds" />
          </mxGeometry>
        </mxCell>
        <mxCell id="va3hNXhypl2KoHStTbOh-35" value="协议" style="shape=partialRectangle;html=1;whiteSpace=wrap;connectable=0;strokeColor=#001DBC;overflow=hidden;fillColor=#0050ef;top=0;left=0;bottom=0;right=0;pointerEvents=1;fontSize=16;fontColor=#ffffff;" vertex="1" parent="va3hNXhypl2KoHStTbOh-33">
          <mxGeometry x="150" width="90" height="48" as="geometry">
            <mxRectangle width="90" height="48" as="alternateBounds" />
          </mxGeometry>
        </mxCell>
        <mxCell id="va3hNXhypl2KoHStTbOh-36" value="优先级" style="shape=partialRectangle;html=1;whiteSpace=wrap;connectable=0;strokeColor=#001DBC;overflow=hidden;fillColor=#0050ef;top=0;left=0;bottom=0;right=0;pointerEvents=1;fontSize=16;fontColor=#ffffff;" vertex="1" parent="va3hNXhypl2KoHStTbOh-33">
          <mxGeometry x="240" width="90" height="48" as="geometry">
            <mxRectangle width="90" height="48" as="alternateBounds" />
          </mxGeometry>
        </mxCell>
        <mxCell id="va3hNXhypl2KoHStTbOh-49" value="开销" style="shape=partialRectangle;html=1;whiteSpace=wrap;connectable=0;strokeColor=#001DBC;overflow=hidden;fillColor=#0050ef;top=0;left=0;bottom=0;right=0;pointerEvents=1;fontSize=16;fontColor=#ffffff;" vertex="1" parent="va3hNXhypl2KoHStTbOh-33">
          <mxGeometry x="330" width="90" height="48" as="geometry">
            <mxRectangle width="90" height="48" as="alternateBounds" />
          </mxGeometry>
        </mxCell>
        <mxCell id="va3hNXhypl2KoHStTbOh-52" value="路由标记" style="shape=partialRectangle;html=1;whiteSpace=wrap;connectable=0;strokeColor=#001DBC;overflow=hidden;fillColor=#0050ef;top=0;left=0;bottom=0;right=0;pointerEvents=1;fontSize=16;fontStyle=0;fontColor=#ffffff;" vertex="1" parent="va3hNXhypl2KoHStTbOh-33">
          <mxGeometry x="420" width="120" height="48" as="geometry">
            <mxRectangle width="120" height="48" as="alternateBounds" />
          </mxGeometry>
        </mxCell>
        <mxCell id="va3hNXhypl2KoHStTbOh-58" value="下一跳" style="shape=partialRectangle;html=1;whiteSpace=wrap;connectable=0;strokeColor=#001DBC;overflow=hidden;fillColor=#0050ef;top=0;left=0;bottom=0;right=0;pointerEvents=1;fontSize=16;fontColor=#ffffff;" vertex="1" parent="va3hNXhypl2KoHStTbOh-33">
          <mxGeometry x="540" width="130" height="48" as="geometry">
            <mxRectangle width="130" height="48" as="alternateBounds" />
          </mxGeometry>
        </mxCell>
        <mxCell id="va3hNXhypl2KoHStTbOh-55" value="出接口" style="shape=partialRectangle;html=1;whiteSpace=wrap;connectable=0;strokeColor=#001DBC;overflow=hidden;fillColor=#0050ef;top=0;left=0;bottom=0;right=0;pointerEvents=1;fontSize=16;fontColor=#ffffff;" vertex="1" parent="va3hNXhypl2KoHStTbOh-33">
          <mxGeometry x="670" width="140" height="48" as="geometry">
            <mxRectangle width="140" height="48" as="alternateBounds" />
          </mxGeometry>
        </mxCell>
        <mxCell id="va3hNXhypl2KoHStTbOh-37" value="" style="shape=tableRow;horizontal=0;startSize=0;swimlaneHead=0;swimlaneBody=0;strokeColor=inherit;top=0;left=0;bottom=0;right=0;collapsible=0;dropTarget=0;fillColor=none;points=[[0,0.5],[1,0.5]];portConstraint=eastwest;fontSize=16;" vertex="1" parent="va3hNXhypl2KoHStTbOh-32">
          <mxGeometry y="78" width="810" height="63" as="geometry" />
        </mxCell>
        <mxCell id="va3hNXhypl2KoHStTbOh-38" value="10.10.10.0/24" style="shape=partialRectangle;html=1;whiteSpace=wrap;connectable=0;strokeColor=inherit;overflow=hidden;fillColor=none;top=0;left=0;bottom=0;right=0;pointerEvents=1;fontSize=16;" vertex="1" parent="va3hNXhypl2KoHStTbOh-37">
          <mxGeometry width="150" height="63" as="geometry">
            <mxRectangle width="150" height="63" as="alternateBounds" />
          </mxGeometry>
        </mxCell>
        <mxCell id="va3hNXhypl2KoHStTbOh-39" value="Direct" style="shape=partialRectangle;html=1;whiteSpace=wrap;connectable=0;strokeColor=inherit;overflow=hidden;fillColor=none;top=0;left=0;bottom=0;right=0;pointerEvents=1;fontSize=16;" vertex="1" parent="va3hNXhypl2KoHStTbOh-37">
          <mxGeometry x="150" width="90" height="63" as="geometry">
            <mxRectangle width="90" height="63" as="alternateBounds" />
          </mxGeometry>
        </mxCell>
        <mxCell id="va3hNXhypl2KoHStTbOh-40" value="0" style="shape=partialRectangle;html=1;whiteSpace=wrap;connectable=0;strokeColor=inherit;overflow=hidden;fillColor=none;top=0;left=0;bottom=0;right=0;pointerEvents=1;fontSize=16;" vertex="1" parent="va3hNXhypl2KoHStTbOh-37">
          <mxGeometry x="240" width="90" height="63" as="geometry">
            <mxRectangle width="90" height="63" as="alternateBounds" />
          </mxGeometry>
        </mxCell>
        <mxCell id="va3hNXhypl2KoHStTbOh-50" value="0" style="shape=partialRectangle;html=1;whiteSpace=wrap;connectable=0;strokeColor=inherit;overflow=hidden;fillColor=none;top=0;left=0;bottom=0;right=0;pointerEvents=1;fontSize=16;" vertex="1" parent="va3hNXhypl2KoHStTbOh-37">
          <mxGeometry x="330" width="90" height="63" as="geometry">
            <mxRectangle width="90" height="63" as="alternateBounds" />
          </mxGeometry>
        </mxCell>
        <mxCell id="va3hNXhypl2KoHStTbOh-53" value="D" style="shape=partialRectangle;html=1;whiteSpace=wrap;connectable=0;strokeColor=inherit;overflow=hidden;fillColor=none;top=0;left=0;bottom=0;right=0;pointerEvents=1;fontSize=16;" vertex="1" parent="va3hNXhypl2KoHStTbOh-37">
          <mxGeometry x="420" width="120" height="63" as="geometry">
            <mxRectangle width="120" height="63" as="alternateBounds" />
          </mxGeometry>
        </mxCell>
        <mxCell id="va3hNXhypl2KoHStTbOh-59" value="10.10.10.254" style="shape=partialRectangle;html=1;whiteSpace=wrap;connectable=0;strokeColor=inherit;overflow=hidden;fillColor=none;top=0;left=0;bottom=0;right=0;pointerEvents=1;fontSize=16;" vertex="1" parent="va3hNXhypl2KoHStTbOh-37">
          <mxGeometry x="540" width="130" height="63" as="geometry">
            <mxRectangle width="130" height="63" as="alternateBounds" />
          </mxGeometry>
        </mxCell>
        <mxCell id="va3hNXhypl2KoHStTbOh-56" value="Vlanif10" style="shape=partialRectangle;html=1;whiteSpace=wrap;connectable=0;strokeColor=inherit;overflow=hidden;fillColor=none;top=0;left=0;bottom=0;right=0;pointerEvents=1;fontSize=16;" vertex="1" parent="va3hNXhypl2KoHStTbOh-37">
          <mxGeometry x="670" width="140" height="63" as="geometry">
            <mxRectangle width="140" height="63" as="alternateBounds" />
          </mxGeometry>
        </mxCell>
        <mxCell id="va3hNXhypl2KoHStTbOh-41" value="" style="shape=tableRow;horizontal=0;startSize=0;swimlaneHead=0;swimlaneBody=0;strokeColor=inherit;top=0;left=0;bottom=0;right=0;collapsible=0;dropTarget=0;fillColor=none;points=[[0,0.5],[1,0.5]];portConstraint=eastwest;fontSize=16;" vertex="1" parent="va3hNXhypl2KoHStTbOh-32">
          <mxGeometry y="141" width="810" height="62" as="geometry" />
        </mxCell>
        <mxCell id="va3hNXhypl2KoHStTbOh-42" value="10.10.10.254/32" style="shape=partialRectangle;html=1;whiteSpace=wrap;connectable=0;strokeColor=inherit;overflow=hidden;fillColor=none;top=0;left=0;bottom=0;right=0;pointerEvents=1;fontSize=16;" vertex="1" parent="va3hNXhypl2KoHStTbOh-41">
          <mxGeometry width="150" height="62" as="geometry">
            <mxRectangle width="150" height="62" as="alternateBounds" />
          </mxGeometry>
        </mxCell>
        <mxCell id="va3hNXhypl2KoHStTbOh-43" value="Direct" style="shape=partialRectangle;html=1;whiteSpace=wrap;connectable=0;strokeColor=inherit;overflow=hidden;fillColor=none;top=0;left=0;bottom=0;right=0;pointerEvents=1;fontSize=16;" vertex="1" parent="va3hNXhypl2KoHStTbOh-41">
          <mxGeometry x="150" width="90" height="62" as="geometry">
            <mxRectangle width="90" height="62" as="alternateBounds" />
          </mxGeometry>
        </mxCell>
        <mxCell id="va3hNXhypl2KoHStTbOh-44" value="0" style="shape=partialRectangle;html=1;whiteSpace=wrap;connectable=0;strokeColor=inherit;overflow=hidden;fillColor=none;top=0;left=0;bottom=0;right=0;pointerEvents=1;fontSize=16;" vertex="1" parent="va3hNXhypl2KoHStTbOh-41">
          <mxGeometry x="240" width="90" height="62" as="geometry">
            <mxRectangle width="90" height="62" as="alternateBounds" />
          </mxGeometry>
        </mxCell>
        <mxCell id="va3hNXhypl2KoHStTbOh-51" value="0" style="shape=partialRectangle;html=1;whiteSpace=wrap;connectable=0;strokeColor=inherit;overflow=hidden;fillColor=none;top=0;left=0;bottom=0;right=0;pointerEvents=1;fontSize=16;" vertex="1" parent="va3hNXhypl2KoHStTbOh-41">
          <mxGeometry x="330" width="90" height="62" as="geometry">
            <mxRectangle width="90" height="62" as="alternateBounds" />
          </mxGeometry>
        </mxCell>
        <mxCell id="va3hNXhypl2KoHStTbOh-54" value="D" style="shape=partialRectangle;html=1;whiteSpace=wrap;connectable=0;strokeColor=inherit;overflow=hidden;fillColor=none;top=0;left=0;bottom=0;right=0;pointerEvents=1;fontSize=16;" vertex="1" parent="va3hNXhypl2KoHStTbOh-41">
          <mxGeometry x="420" width="120" height="62" as="geometry">
            <mxRectangle width="120" height="62" as="alternateBounds" />
          </mxGeometry>
        </mxCell>
        <mxCell id="va3hNXhypl2KoHStTbOh-60" value="127.0.0.1" style="shape=partialRectangle;html=1;whiteSpace=wrap;connectable=0;strokeColor=inherit;overflow=hidden;fillColor=none;top=0;left=0;bottom=0;right=0;pointerEvents=1;fontSize=16;" vertex="1" parent="va3hNXhypl2KoHStTbOh-41">
          <mxGeometry x="540" width="130" height="62" as="geometry">
            <mxRectangle width="130" height="62" as="alternateBounds" />
          </mxGeometry>
        </mxCell>
        <mxCell id="va3hNXhypl2KoHStTbOh-57" value="Vlanif10" style="shape=partialRectangle;html=1;whiteSpace=wrap;connectable=0;strokeColor=inherit;overflow=hidden;fillColor=none;top=0;left=0;bottom=0;right=0;pointerEvents=1;fontSize=16;" vertex="1" parent="va3hNXhypl2KoHStTbOh-41">
          <mxGeometry x="670" width="140" height="62" as="geometry">
            <mxRectangle width="140" height="62" as="alternateBounds" />
          </mxGeometry>
        </mxCell>
        <mxCell id="va3hNXhypl2KoHStTbOh-152" value="" style="group;movable=0;resizable=0;rotatable=0;deletable=0;editable=0;locked=1;connectable=0;" vertex="1" connectable="0" parent="1">
          <mxGeometry x="1570" y="130" width="50" height="45" as="geometry" />
        </mxCell>
        <mxCell id="va3hNXhypl2KoHStTbOh-153" value="" style="group;movable=0;resizable=0;rotatable=0;deletable=0;editable=0;locked=1;connectable=0;" vertex="1" connectable="0" parent="va3hNXhypl2KoHStTbOh-152">
          <mxGeometry width="50" height="45" as="geometry" />
        </mxCell>
        <mxCell id="va3hNXhypl2KoHStTbOh-174" value="" style="group;fontColor=#3333FF;" vertex="1" connectable="0" parent="1">
          <mxGeometry x="1420" y="-310" width="1560" height="1140" as="geometry" />
        </mxCell>
        <mxCell id="va3hNXhypl2KoHStTbOh-175" value="" style="rounded=0;whiteSpace=wrap;html=1;" vertex="1" parent="va3hNXhypl2KoHStTbOh-174">
          <mxGeometry y="630" width="790" height="430" as="geometry" />
        </mxCell>
        <mxCell id="va3hNXhypl2KoHStTbOh-177" value="eth0" style="rounded=0;whiteSpace=wrap;html=1;fillColor=#ffe6cc;strokeColor=#d79b00;" vertex="1" parent="va3hNXhypl2KoHStTbOh-174">
          <mxGeometry x="40" y="1035" width="50" height="45" as="geometry" />
        </mxCell>
        <mxCell id="va3hNXhypl2KoHStTbOh-178" value="eth1" style="rounded=0;whiteSpace=wrap;html=1;fillColor=#ffe6cc;strokeColor=#d79b00;" vertex="1" parent="va3hNXhypl2KoHStTbOh-174">
          <mxGeometry x="110" y="1035" width="50" height="45" as="geometry" />
        </mxCell>
        <mxCell id="va3hNXhypl2KoHStTbOh-179" value="eth3" style="rounded=0;whiteSpace=wrap;html=1;fillColor=#ffe6cc;strokeColor=#d79b00;" vertex="1" parent="va3hNXhypl2KoHStTbOh-174">
          <mxGeometry x="254" y="1035" width="50" height="45" as="geometry" />
        </mxCell>
        <mxCell id="va3hNXhypl2KoHStTbOh-180" value="eth2" style="rounded=0;whiteSpace=wrap;html=1;fillColor=#ffe6cc;strokeColor=#d79b00;" vertex="1" parent="va3hNXhypl2KoHStTbOh-174">
          <mxGeometry x="180" y="1035" width="50" height="45" as="geometry" />
        </mxCell>
        <mxCell id="va3hNXhypl2KoHStTbOh-181" value="eth4" style="rounded=0;whiteSpace=wrap;html=1;fillColor=#dae8fc;strokeColor=#6c8ebf;" vertex="1" parent="va3hNXhypl2KoHStTbOh-174">
          <mxGeometry x="380" y="1035" width="50" height="45" as="geometry" />
        </mxCell>
        <mxCell id="va3hNXhypl2KoHStTbOh-182" value="eth5" style="rounded=0;whiteSpace=wrap;html=1;fillColor=#dae8fc;strokeColor=#6c8ebf;" vertex="1" parent="va3hNXhypl2KoHStTbOh-174">
          <mxGeometry x="460" y="1035" width="50" height="45" as="geometry" />
        </mxCell>
        <mxCell id="va3hNXhypl2KoHStTbOh-183" value="eth6" style="rounded=0;whiteSpace=wrap;html=1;fillColor=#dae8fc;strokeColor=#6c8ebf;" vertex="1" parent="va3hNXhypl2KoHStTbOh-174">
          <mxGeometry x="540" y="1035" width="50" height="45" as="geometry" />
        </mxCell>
        <mxCell id="va3hNXhypl2KoHStTbOh-184" value="eth7" style="rounded=0;whiteSpace=wrap;html=1;fillColor=#dae8fc;strokeColor=#6c8ebf;" vertex="1" parent="va3hNXhypl2KoHStTbOh-174">
          <mxGeometry x="610" y="1035" width="50" height="45" as="geometry" />
        </mxCell>
        <mxCell id="va3hNXhypl2KoHStTbOh-187" value="&lt;span&gt;vlan10&lt;/span&gt;&lt;div&gt;&lt;span&gt;10.10.10.0/24&lt;/span&gt;&lt;/div&gt;" style="text;html=1;align=center;verticalAlign=middle;whiteSpace=wrap;rounded=0;fillColor=#ffe6cc;strokeColor=#d79b00;" vertex="1" parent="va3hNXhypl2KoHStTbOh-174">
          <mxGeometry x="120" y="1110" width="120" height="30" as="geometry" />
        </mxCell>
        <mxCell id="va3hNXhypl2KoHStTbOh-188" value="vlan20&lt;div&gt;10.10.20.0/24&lt;/div&gt;" style="text;html=1;align=center;verticalAlign=middle;whiteSpace=wrap;rounded=0;fillColor=#dae8fc;strokeColor=#6c8ebf;" vertex="1" parent="va3hNXhypl2KoHStTbOh-174">
          <mxGeometry x="480" y="1110" width="100" height="30" as="geometry" />
        </mxCell>
        <mxCell id="va3hNXhypl2KoHStTbOh-193" value="" style="rounded=0;whiteSpace=wrap;html=1;fillColor=#ffe6cc;strokeColor=#d79b00;movable=1;resizable=1;rotatable=1;deletable=1;editable=1;locked=0;connectable=1;" vertex="1" parent="va3hNXhypl2KoHStTbOh-174">
          <mxGeometry x="540" y="605" width="25" height="45" as="geometry" />
        </mxCell>
        <mxCell id="va3hNXhypl2KoHStTbOh-194" value="" style="group" vertex="1" connectable="0" parent="va3hNXhypl2KoHStTbOh-174">
          <mxGeometry x="770" width="790" height="455" as="geometry" />
        </mxCell>
        <mxCell id="va3hNXhypl2KoHStTbOh-195" value="" style="rounded=0;whiteSpace=wrap;html=1;" vertex="1" parent="va3hNXhypl2KoHStTbOh-194">
          <mxGeometry y="-50" width="690" height="480" as="geometry" />
        </mxCell>
        <mxCell id="va3hNXhypl2KoHStTbOh-196" value="" style="group;movable=1;resizable=1;rotatable=1;deletable=1;editable=1;locked=0;connectable=1;" vertex="1" connectable="0" parent="va3hNXhypl2KoHStTbOh-194">
          <mxGeometry x="120" y="410" width="50" height="45" as="geometry" />
        </mxCell>
        <mxCell id="va3hNXhypl2KoHStTbOh-197" value="" style="group;movable=0;resizable=0;rotatable=0;deletable=0;editable=0;locked=1;connectable=0;" vertex="1" connectable="0" parent="va3hNXhypl2KoHStTbOh-196">
          <mxGeometry width="50" height="45" as="geometry" />
        </mxCell>
        <mxCell id="va3hNXhypl2KoHStTbOh-198" value="" style="rounded=0;whiteSpace=wrap;html=1;fillColor=#dae8fc;strokeColor=#6c8ebf;" vertex="1" parent="va3hNXhypl2KoHStTbOh-197">
          <mxGeometry x="25" width="25" height="45" as="geometry" />
        </mxCell>
        <mxCell id="va3hNXhypl2KoHStTbOh-199" value="" style="rounded=0;whiteSpace=wrap;html=1;fillColor=#ffe6cc;strokeColor=#d79b00;movable=1;resizable=1;rotatable=1;deletable=1;editable=1;locked=0;connectable=1;" vertex="1" parent="va3hNXhypl2KoHStTbOh-194">
          <mxGeometry x="120" y="410" width="25" height="45" as="geometry" />
        </mxCell>
        <mxCell id="va3hNXhypl2KoHStTbOh-176" value="&lt;div&gt;&lt;font style=&quot;color: rgb(0, 0, 0);&quot;&gt;&lt;b style=&quot;&quot;&gt;主控板&lt;/b&gt;&lt;/font&gt;&lt;/div&gt;&lt;font style=&quot;color: rgb(255, 0, 0);&quot;&gt;&lt;b&gt;三层模块&lt;/b&gt;&lt;/font&gt;" style="rounded=1;whiteSpace=wrap;html=1;" vertex="1" parent="va3hNXhypl2KoHStTbOh-194">
          <mxGeometry y="30" width="690" height="110" as="geometry" />
        </mxCell>
        <mxCell id="va3hNXhypl2KoHStTbOh-185" value="vlanif10&lt;div&gt;10.10.10.254&lt;/div&gt;" style="rounded=0;whiteSpace=wrap;html=1;fillColor=#ffe6cc;strokeColor=#d79b00;" vertex="1" parent="va3hNXhypl2KoHStTbOh-194">
          <mxGeometry x="110" y="60" width="100" height="40" as="geometry" />
        </mxCell>
        <mxCell id="va3hNXhypl2KoHStTbOh-186" value="vlanif20&lt;div&gt;10.10.20.254&lt;/div&gt;" style="rounded=0;whiteSpace=wrap;html=1;fillColor=#dae8fc;strokeColor=#6c8ebf;" vertex="1" parent="va3hNXhypl2KoHStTbOh-194">
          <mxGeometry x="420" y="60" width="100" height="40" as="geometry" />
        </mxCell>
        <mxCell id="va3hNXhypl2KoHStTbOh-204" value="vlanif99&lt;div&gt;10.10.99.254&lt;/div&gt;" style="rounded=0;whiteSpace=wrap;html=1;fillColor=#d80073;strokeColor=#A50040;fontColor=#ffffff;" vertex="1" parent="va3hNXhypl2KoHStTbOh-194">
          <mxGeometry x="540" y="60" width="100" height="40" as="geometry" />
        </mxCell>
        <mxCell id="va3hNXhypl2KoHStTbOh-189" value="&lt;b&gt;接口板/背板&lt;/b&gt;&lt;div&gt;&lt;b&gt;&lt;font style=&quot;color: rgb(255, 0, 0);&quot;&gt;二层模块&lt;/font&gt;&lt;/b&gt;&lt;/div&gt;" style="rounded=1;whiteSpace=wrap;html=1;" vertex="1" parent="va3hNXhypl2KoHStTbOh-194">
          <mxGeometry y="340" width="690" height="60" as="geometry" />
        </mxCell>
        <mxCell id="va3hNXhypl2KoHStTbOh-210" value="" style="rounded=0;whiteSpace=wrap;html=1;fillColor=#d80073;strokeColor=#A50040;fontColor=#ffffff;" vertex="1" parent="va3hNXhypl2KoHStTbOh-194">
          <mxGeometry x="170" y="410" width="25" height="45" as="geometry" />
        </mxCell>
        <mxCell id="va3hNXhypl2KoHStTbOh-215" value="&lt;b&gt;&lt;font style=&quot;color: rgb(255, 0, 0);&quot;&gt;核心交换机&lt;/font&gt;&lt;/b&gt;" style="text;html=1;align=center;verticalAlign=middle;whiteSpace=wrap;rounded=0;" vertex="1" parent="va3hNXhypl2KoHStTbOh-194">
          <mxGeometry x="10" y="-40" width="80" height="30" as="geometry" />
        </mxCell>
        <mxCell id="va3hNXhypl2KoHStTbOh-201" value="&lt;b&gt;&lt;font style=&quot;color: rgb(255, 0, 0);&quot;&gt;接入交换机&lt;/font&gt;&lt;/b&gt;" style="text;html=1;align=center;verticalAlign=middle;whiteSpace=wrap;rounded=0;" vertex="1" parent="va3hNXhypl2KoHStTbOh-174">
          <mxGeometry x="20" y="650" width="80" height="30" as="geometry" />
        </mxCell>
        <mxCell id="va3hNXhypl2KoHStTbOh-202" value="&lt;div&gt;eth24&lt;/div&gt;Trunk" style="text;html=1;align=center;verticalAlign=middle;whiteSpace=wrap;rounded=0;" vertex="1" parent="va3hNXhypl2KoHStTbOh-174">
          <mxGeometry x="910" y="470" width="60" height="30" as="geometry" />
        </mxCell>
        <mxCell id="va3hNXhypl2KoHStTbOh-203" value="eth24&lt;div&gt;Trunk&lt;/div&gt;" style="text;html=1;align=center;verticalAlign=middle;whiteSpace=wrap;rounded=0;" vertex="1" parent="va3hNXhypl2KoHStTbOh-174">
          <mxGeometry x="510" y="540" width="80" height="30" as="geometry" />
        </mxCell>
        <mxCell id="va3hNXhypl2KoHStTbOh-114" value="&lt;b&gt;接口板/背板&lt;/b&gt;&lt;div&gt;&lt;b&gt;&lt;font style=&quot;color: rgb(255, 0, 0);&quot;&gt;二层模块&lt;/font&gt;&lt;/b&gt;&lt;/div&gt;" style="rounded=1;whiteSpace=wrap;html=1;" vertex="1" parent="va3hNXhypl2KoHStTbOh-174">
          <mxGeometry y="930" width="790" height="60" as="geometry" />
        </mxCell>
        <mxCell id="va3hNXhypl2KoHStTbOh-11" value="&lt;div&gt;&lt;font style=&quot;color: rgb(0, 0, 0);&quot;&gt;&lt;b style=&quot;&quot;&gt;主控板&lt;/b&gt;&lt;/font&gt;&lt;/div&gt;&lt;font style=&quot;color: rgb(255, 0, 0);&quot;&gt;&lt;b&gt;三层模块&lt;/b&gt;&lt;/font&gt;" style="rounded=1;whiteSpace=wrap;html=1;" vertex="1" parent="va3hNXhypl2KoHStTbOh-174">
          <mxGeometry y="710" width="790" height="110" as="geometry" />
        </mxCell>
        <mxCell id="va3hNXhypl2KoHStTbOh-206" value="vlanif99&lt;div&gt;10.10.99.251&lt;/div&gt;" style="rounded=0;whiteSpace=wrap;html=1;fillColor=#d80073;strokeColor=#A50040;fontColor=#ffffff;" vertex="1" parent="va3hNXhypl2KoHStTbOh-174">
          <mxGeometry x="625" y="745" width="100" height="40" as="geometry" />
        </mxCell>
        <mxCell id="va3hNXhypl2KoHStTbOh-191" value="" style="group;movable=0;resizable=0;rotatable=0;deletable=0;editable=0;locked=1;connectable=0;" vertex="1" connectable="0" parent="va3hNXhypl2KoHStTbOh-174">
          <mxGeometry x="540" y="605" width="50" height="45" as="geometry" />
        </mxCell>
        <mxCell id="va3hNXhypl2KoHStTbOh-192" value="" style="rounded=0;whiteSpace=wrap;html=1;fillColor=#dae8fc;strokeColor=#6c8ebf;" vertex="1" parent="va3hNXhypl2KoHStTbOh-191">
          <mxGeometry x="25" width="25" height="45" as="geometry" />
        </mxCell>
        <mxCell id="va3hNXhypl2KoHStTbOh-209" value="" style="rounded=0;whiteSpace=wrap;html=1;fillColor=#d80073;strokeColor=#A50040;fontColor=#ffffff;" vertex="1" parent="va3hNXhypl2KoHStTbOh-174">
          <mxGeometry x="590" y="605" width="25" height="45" as="geometry" />
        </mxCell>
        <mxCell id="va3hNXhypl2KoHStTbOh-211" value="" style="endArrow=none;html=1;rounded=0;entryX=0.5;entryY=1;entryDx=0;entryDy=0;exitX=0;exitY=0;exitDx=0;exitDy=0;" edge="1" parent="va3hNXhypl2KoHStTbOh-174" source="va3hNXhypl2KoHStTbOh-209" target="va3hNXhypl2KoHStTbOh-196">
          <mxGeometry width="50" height="50" relative="1" as="geometry">
            <mxPoint x="520" y="470" as="sourcePoint" />
            <mxPoint x="760" y="500" as="targetPoint" />
          </mxGeometry>
        </mxCell>
        <mxCell id="va3hNXhypl2KoHStTbOh-111" value="&lt;font style=&quot;font-size: 18px; color: rgb(51, 51, 255);&quot;&gt;当添加vlanif接口之后，便会自动生成两条直连路由：&lt;/font&gt;&lt;div&gt;1、表示路由器收到&lt;b&gt;&lt;font style=&quot;color: rgb(255, 0, 0);&quot;&gt;目的地址为10.10.10.0/24&lt;/font&gt;&lt;/b&gt;网段的三层报文，会发送到&lt;font style=&quot;font-weight: bold; color: rgb(255, 0, 0);&quot;&gt;下一个路由设备的IP地址上&lt;/font&gt;&lt;font style=&quot;color: rgb(0, 0, 0);&quot;&gt;&lt;b&gt;，&lt;/b&gt;从&lt;/font&gt;&lt;font style=&quot;color: rgb(255, 0, 0);&quot;&gt;&lt;b&gt;当前路由器的Vlanif10这个接口&lt;/b&gt;&lt;/font&gt;&lt;font style=&quot;color: rgb(0, 0, 0);&quot;&gt;发出&lt;/font&gt;&lt;/div&gt;&lt;div&gt;&lt;font&gt;&lt;font style=&quot;color: rgb(0, 0, 0);&quot;&gt;2、&lt;/font&gt;&lt;font&gt;&lt;font&gt;表示当路由器收到&lt;/font&gt;&lt;b style=&quot;&quot;&gt;&lt;font style=&quot;color: rgb(255, 0, 0);&quot;&gt;目的地址为10.10.10.254&lt;/font&gt;&lt;/b&gt;&lt;font&gt;的三层报文时，&lt;/font&gt;&lt;/font&gt;&lt;/font&gt;&lt;span style=&quot;background-color: transparent;&quot;&gt;&lt;font&gt;设备必须识别：“这是发给我的”，而不是尝试转发出去。&lt;/font&gt;&lt;/span&gt;&lt;span style=&quot;background-color: transparent;&quot;&gt;&lt;font style=&quot;color: light-dark(rgb(255, 0, 0), rgb(255, 255, 255));&quot;&gt;&lt;b&gt;下一跳为 127.0.0.1 是逻辑表示，实际在 FIB 中出接口是 InLoopBack0（内部环回接口）；&lt;/b&gt;&lt;/font&gt;&lt;/span&gt;&lt;/div&gt;" style="text;html=1;align=center;verticalAlign=middle;whiteSpace=wrap;rounded=0;" vertex="1" parent="va3hNXhypl2KoHStTbOh-174">
          <mxGeometry x="-460" y="167.5" width="1110" height="120" as="geometry" />
        </mxCell>
        <mxCell id="va3hNXhypl2KoHStTbOh-214" value="" style="rounded=0;whiteSpace=wrap;html=1;" vertex="1" parent="1">
          <mxGeometry x="2870" y="-640" width="380" height="130" as="geometry" />
        </mxCell>
        <mxCell id="va3hNXhypl2KoHStTbOh-253" value="&lt;b&gt;&lt;font style=&quot;color: rgb(255, 0, 0);&quot;&gt;出口设备FW&lt;/font&gt;&lt;/b&gt;" style="text;html=1;align=center;verticalAlign=middle;whiteSpace=wrap;rounded=0;" vertex="1" parent="1">
          <mxGeometry x="2870" y="-630" width="80" height="30" as="geometry" />
        </mxCell>
        <mxCell id="va3hNXhypl2KoHStTbOh-254" value="eth23" style="rounded=0;whiteSpace=wrap;html=1;" vertex="1" parent="1">
          <mxGeometry x="2790" y="-390" width="60" height="60" as="geometry" />
        </mxCell>
        <mxCell id="va3hNXhypl2KoHStTbOh-255" value="" style="endArrow=none;html=1;rounded=0;entryX=0.5;entryY=1;entryDx=0;entryDy=0;" edge="1" parent="1" target="va3hNXhypl2KoHStTbOh-256">
          <mxGeometry width="50" height="50" relative="1" as="geometry">
            <mxPoint x="2820" y="-390" as="sourcePoint" />
            <mxPoint x="2920" y="-470" as="targetPoint" />
          </mxGeometry>
        </mxCell>
        <mxCell id="va3hNXhypl2KoHStTbOh-256" value="eth6" style="rounded=0;whiteSpace=wrap;html=1;" vertex="1" parent="1">
          <mxGeometry x="2910" y="-540" width="60" height="60" as="geometry" />
        </mxCell>
        <mxCell id="va3hNXhypl2KoHStTbOh-257" value="Access" style="text;html=1;align=center;verticalAlign=middle;whiteSpace=wrap;rounded=0;" vertex="1" parent="1">
          <mxGeometry x="2760" y="-440" width="60" height="30" as="geometry" />
        </mxCell>
        <mxCell id="va3hNXhypl2KoHStTbOh-258" value="Access" style="text;html=1;align=center;verticalAlign=middle;whiteSpace=wrap;rounded=0;" vertex="1" parent="1">
          <mxGeometry x="2990" y="-480" width="60" height="30" as="geometry" />
        </mxCell>
        <mxCell id="va3hNXhypl2KoHStTbOh-259" value="WAN0" style="rounded=0;whiteSpace=wrap;html=1;" vertex="1" parent="1">
          <mxGeometry x="3010" y="-670" width="60" height="60" as="geometry" />
        </mxCell>
        <mxCell id="va3hNXhypl2KoHStTbOh-260" value="WAN1" style="rounded=0;whiteSpace=wrap;html=1;" vertex="1" parent="1">
          <mxGeometry x="3110" y="-670" width="60" height="60" as="geometry" />
        </mxCell>
      </root>
    </mxGraphModel>
  </diagram>
</mxfile>
